<?xml version="1.0" encoding="UTF-8"?>
<svg xmlns="http://www.w3.org/2000/svg" xmlns:xlink="http://www.w3.org/1999/xlink" width="424pt" height="180pt" viewBox="0 0 424 180" version="1.1">
<g id="surface1">
<path style=" stroke:none;fill-rule:nonzero;fill:rgb(87.843137%,12.54902%,25.490196%);fill-opacity:1;" d="M 159.304688 160.128906 L 130.367188 160.128906 L 147.753906 100.871094 L 133.050781 100.871094 L 108.894531 180 L 79.957031 180 L 127.800781 19.753906 L 156.738281 19.753906 L 140.402344 75.972656 L 155.105469 75.972656 L 178.324219 0 L 207.265625 0 Z M 159.304688 160.128906 "/>
<path style=" stroke:none;fill-rule:nonzero;fill:rgb(87.843137%,12.54902%,25.490196%);fill-opacity:1;" d="M 209.597656 19.753906 L 264.792969 19.753906 L 256.507812 45 L 231.417969 45 L 222.320312 75.855469 L 247.523438 75.855469 L 239.589844 100.753906 L 214.964844 100.753906 L 205.28125 133.363281 L 232.121094 133.363281 L 222.433594 160.011719 L 168.289062 160.011719 Z M 209.597656 19.753906 "/>
<path style=" stroke:none;fill-rule:nonzero;fill:rgb(87.843137%,12.54902%,25.490196%);fill-opacity:1;" d="M 256.625 180 L 227.453125 180 L 274.011719 19.753906 L 326.988281 19.753906 C 333.289062 19.753906 337.492188 21.507812 339.707031 25.128906 C 341.925781 28.753906 342.273438 32.84375 340.875 37.519531 L 326.871094 85.207031 C 326.171875 87.3125 324.886719 89.183594 322.90625 90.933594 C 320.921875 92.6875 318.121094 93.507812 314.503906 93.507812 C 316.71875 93.855469 318.585938 95.257812 320.105469 97.714844 C 321.621094 100.167969 321.621094 103.910156 320.105469 108.933594 L 305.050781 160.128906 L 275.996094 160.128906 L 292.097656 105.078125 C 292.449219 103.910156 292.566406 102.855469 292.214844 101.804688 C 291.863281 100.753906 290.816406 100.285156 289.066406 100.285156 L 279.378906 100.285156 Z M 295.363281 79.597656 C 296.765625 79.597656 298.050781 79.246094 299.332031 78.546875 C 300.5 77.84375 301.433594 76.441406 302.132812 74.222656 L 309.835938 48.15625 C 311.003906 44.296875 309.484375 42.3125 305.402344 42.3125 L 296.300781 42.3125 L 285.328125 79.597656 Z M 295.363281 79.597656 "/>
<path style=" stroke:none;fill-rule:nonzero;fill:rgb(87.843137%,12.54902%,25.490196%);fill-opacity:1;" d="M 412.054688 19.753906 C 416.605469 19.753906 419.875 21.390625 421.976562 24.664062 C 424.074219 27.933594 424.542969 31.675781 423.375 35.765625 L 391.167969 145.285156 C 389.417969 151.128906 386.382812 154.988281 382.183594 157.089844 C 377.984375 159.195312 373.433594 160.128906 368.648438 160.128906 L 334.105469 160.128906 C 331.65625 160.128906 329.441406 159.664062 327.339844 158.84375 C 325.238281 158.027344 323.605469 156.742188 322.203125 155.105469 C 320.804688 153.46875 319.988281 151.363281 319.519531 149.027344 C 319.054688 146.6875 319.289062 144 320.21875 140.960938 L 351.84375 33.429688 C 352.894531 29.335938 354.996094 25.949219 358.144531 23.492188 C 361.296875 21.039062 365.261719 19.753906 370.046875 19.753906 Z M 381.71875 42.3125 C 380.316406 42.3125 379.265625 42.664062 378.683594 43.246094 C 377.984375 43.949219 377.632812 44.765625 377.28125 45.703125 L 351.496094 133.128906 C 350.792969 135.46875 351.726562 136.636719 354.175781 136.636719 L 361.648438 136.636719 C 364.09375 136.636719 365.613281 135.46875 366.3125 133.128906 L 391.984375 45.816406 C 392.566406 43.363281 391.636719 42.195312 389.066406 42.195312 L 381.71875 42.195312 Z M 381.71875 42.3125 "/>
<path style=" stroke:none;fill-rule:nonzero;fill:rgb(25.490196%,25.490196%,30.196078%);fill-opacity:1;" d="M 53.328125 35.066406 L 72.113281 35.066406 C 74.566406 35.066406 76.082031 35.765625 76.78125 37.050781 C 77.480469 38.335938 77.597656 39.855469 77.132812 41.726562 L 72.699219 56.921875 C 72.464844 57.855469 71.882812 58.675781 70.949219 59.375 C 70.015625 60.195312 68.613281 60.429688 66.863281 60.429688 C 67.796875 60.429688 68.496094 60.664062 68.964844 61.011719 C 69.546875 61.363281 69.898438 61.832031 70.128906 62.414062 C 70.363281 63 70.480469 63.585938 70.480469 64.285156 C 70.480469 64.988281 70.363281 65.6875 70.246094 66.273438 L 66.046875 80.183594 C 65.578125 81.816406 64.644531 83.105469 63.480469 84.039062 C 62.3125 84.972656 60.445312 85.441406 58.226562 85.441406 L 38.507812 85.441406 Z M 55.195312 77.144531 C 55.660156 77.144531 56.128906 77.027344 56.476562 76.910156 C 56.828125 76.675781 57.179688 76.207031 57.410156 75.507812 L 60.445312 65.335938 C 60.679688 64.636719 60.679688 64.167969 60.445312 63.703125 C 60.210938 63.234375 59.746094 63.117188 59.046875 63.117188 L 55.777344 63.117188 L 51.578125 77.257812 L 55.195312 77.257812 Z M 60.914062 56.335938 C 61.613281 56.335938 62.195312 56.222656 62.546875 55.988281 C 62.894531 55.753906 63.246094 55.285156 63.480469 54.46875 L 66.164062 45.351562 C 66.398438 44.648438 66.398438 44.183594 66.28125 43.832031 C 66.046875 43.480469 65.578125 43.246094 64.878906 43.246094 L 61.496094 43.246094 L 57.644531 56.335938 Z M 60.914062 56.335938 "/>
<path style=" stroke:none;fill-rule:nonzero;fill:rgb(25.490196%,25.490196%,30.196078%);fill-opacity:1;" d="M 82.734375 35.066406 L 102.570312 35.066406 L 99.886719 44.183594 L 90.550781 44.183594 L 87.285156 55.285156 L 96.386719 55.285156 L 93.703125 64.285156 L 84.601562 64.285156 L 81.097656 75.972656 L 90.785156 75.972656 L 87.285156 85.558594 L 67.914062 85.558594 Z M 82.734375 35.066406 "/>
<path style=" stroke:none;fill-rule:nonzero;fill:rgb(25.490196%,25.490196%,30.196078%);fill-opacity:1;" d="M 32.207031 94.324219 L 29.523438 103.441406 L 22.40625 103.441406 L 10.386719 144.703125 L 0 144.703125 L 12.253906 103.324219 L 5.019531 103.324219 L 7.703125 94.207031 L 32.207031 94.207031 Z M 32.207031 94.324219 "/>
<path style=" stroke:none;fill-rule:nonzero;fill:rgb(25.490196%,25.490196%,30.196078%);fill-opacity:1;" d="M 46.324219 144.703125 L 35.941406 144.703125 L 42.125 123.429688 L 36.875 123.429688 L 30.574219 144.703125 L 20.1875 144.703125 L 35.007812 94.324219 L 45.394531 94.324219 L 39.558594 114.546875 L 44.808594 114.546875 L 50.761719 94.324219 L 61.144531 94.324219 Z M 46.324219 144.703125 "/>
<path style=" stroke:none;fill-rule:nonzero;fill:rgb(25.490196%,25.490196%,30.196078%);fill-opacity:1;" d="M 64.414062 94.324219 L 84.25 94.324219 L 81.566406 103.441406 L 72.230469 103.441406 L 68.964844 114.546875 L 78.066406 114.546875 L 75.382812 123.546875 L 66.28125 123.546875 L 62.78125 135.234375 L 72.464844 135.234375 L 68.964844 144.816406 L 49.59375 144.816406 Z M 64.414062 94.324219 "/>
</g>
</svg>
